<?xml version="1.0" encoding="UTF-8" standalone="no"?>
<!-- Created with Inkscape (http://www.inkscape.org/) -->

<svg
   version="1.1"
   id="svg32"
   width="352.59842"
   height="31.939219"
   viewBox="0 0 352.59842 31.939219"
   sodipodi:docname="Screen Shot 2023-03-23 at 9.45.49 PM.png"
   xmlns:inkscape="http://www.inkscape.org/namespaces/inkscape"
   xmlns:sodipodi="http://sodipodi.sourceforge.net/DTD/sodipodi-0.dtd"
   xmlns="http://www.w3.org/2000/svg"
   xmlns:svg="http://www.w3.org/2000/svg">
  <defs
     id="defs36" />
  <sodipodi:namedview
     id="namedview34"
     pagecolor="#ffffff"
     bordercolor="#000000"
     borderopacity="0.25"
     inkscape:showpageshadow="2"
     inkscape:pageopacity="0.0"
     inkscape:pagecheckerboard="0"
     inkscape:deskcolor="#d1d1d1"
     showgrid="false" />
  <g
     inkscape:groupmode="layer"
     inkscape:label="Image"
     id="g38"
     transform="translate(1.5615618,-9.3637247)">
    <path
       style="fill:#000000;stroke-width:0.666667"
       d="m 160.38462,39.662409 c -1.46667,-0.866598 -3.19167,-2.221554 -3.83333,-3.011014 -1.52865,-1.880734 -1.50212,-5.444113 0.051,-6.849666 1.1536,-1.044 1.20481,-1.005591 0.97319,0.730009 -0.87197,6.533922 9.06018,9.890933 14.42805,4.876599 4.26216,-3.981462 1.66564,-10.640251 -5.92584,-15.196814 -8.61006,-5.16794 -20.61162,-6.62242 -37.35974,-4.527659 -14.74033,1.843638 -19.80437,2.82934 -56.000002,10.900249 -33.227636,7.409106 -35.196274,7.720558 -48.999999,7.75215 C 11.437322,34.364363 6.7315885,33.669489 0.08849146,30.846984 -3.0904645,29.496316 -1.4184735,29.037998 2.9036975,30.075293 c 4.711421,1.130713 20.7974745,0.96128 31.1475855,-0.328075 15.622402,-1.946146 23.027433,-3.281712 38.999999,-7.034016 38.236988,-8.982703 48.765208,-10.68281 66.155188,-10.68281 12.99141,0 19.83376,1.145621 26.2985,4.403182 l 3.12034,1.572332 2.01416,-2.543092 c 2.47601,-3.126211 8.00764,-6.0990894 11.34857,-6.0990894 2.98083,0 9.06077,2.7935294 10.03277,4.6097114 1.00192,1.872118 0.8584,4.426529 -0.30286,5.390289 -0.84688,0.702853 -1,0.554385 -1,-0.969652 0,-4.17785 -6.17888,-7.320091 -11.34851,-5.771231 -2.69837,0.808452 -5.98652,4.083611 -5.98233,5.9587 0.008,3.765895 5.75923,8.494462 13.41998,11.034482 15.37356,5.097303 35.55612,3.494827 87.2442,-6.92711 6.86434,-1.384066 25.48988,-4.723335 33,-5.916383 16.5697,-2.632244 34.76249,-1.900923 42.66666,1.71513 1.95162,0.892836 1.91936,0.906821 -1.33333,0.578026 -10.0378,-1.014664 -12.91199,-1.070202 -22.66667,-0.437984 -17.00776,1.102302 -29.61809,2.896347 -52.66666,7.492777 -34.2657,6.83339 -41.87709,7.897795 -59.90426,8.377242 -15.90356,0.422967 -20.65108,-0.06321 -28.64988,-2.933967 -2.50477,-0.898957 -4.93712,-1.487504 -5.4052,-1.307881 -0.4681,0.179623 -1.02859,1.214151 -1.24555,2.29895 -0.78071,3.903521 -7.78963,8.863865 -12.35811,8.74606 -1.34036,-0.03456 -3.637,-0.771877 -5.10367,-1.638475 z"
       id="path323"
       inkscape:export-filename="../matron/art/useDecoration.svg"
       inkscape:export-xdpi="96"
       inkscape:export-ydpi="96" />
  </g>
</svg>
