<?xml version="1.0" encoding="UTF-8" standalone="no"?>
<!-- Created with Inkscape (http://www.inkscape.org/) -->

<svg
   width="110.27846mm"
   height="110.03343mm"
   viewBox="0 0 110.27846 110.03343"
   version="1.1"
   id="svg446"
   xml:space="preserve"
   xmlns:inkscape="http://www.inkscape.org/namespaces/inkscape"
   xmlns:sodipodi="http://sodipodi.sourceforge.net/DTD/sodipodi-0.dtd"
   xmlns="http://www.w3.org/2000/svg"
   xmlns:svg="http://www.w3.org/2000/svg"><sodipodi:namedview
     id="namedview448"
     pagecolor="#ffffff"
     bordercolor="#000000"
     borderopacity="0.25"
     inkscape:showpageshadow="2"
     inkscape:pageopacity="0.0"
     inkscape:pagecheckerboard="0"
     inkscape:deskcolor="#d1d1d1"
     inkscape:document-units="mm"
     showgrid="false" /><defs
     id="defs443" /><g
     inkscape:label="Layer 1"
     inkscape:groupmode="layer"
     id="layer1"
     transform="translate(-52.146016,-127.50612)"><path
       style="fill:#000000;stroke-width:0.264583"
       d="m 152.60152,127.62999 c 2.62283,0.68588 4.53837,2.84145 5.17882,5.82778 0.39037,1.82022 0.12215,2.22014 -1.50901,2.24996 l -1.28856,0.0236 0.0383,1.19062 c 0.024,0.74764 0.61243,2.66725 1.58148,5.15938 l 1.54324,3.96875 0.0902,5.87347 0.0902,5.87348 1.23871,0.15743 c 0.68129,0.0866 1.60341,0.21295 2.04915,0.2808 l 0.81044,0.12336 -0.0882,1.65094 c -0.12928,2.42059 -0.54578,4.21155 -1.57064,6.75372 -1.14153,2.83154 -2.48738,5.25109 -4.07052,7.31788 -2.27418,2.96894 -2.29761,3.18432 -0.56652,5.20647 2.04858,2.39302 2.55839,3.81039 2.55789,7.1114 -5e-4,3.23169 -0.13156,3.56172 -2.51346,6.3292 l -1.57139,1.82577 0.67154,1.9221 c 1.24982,3.57726 1.14736,5.27277 -0.52722,8.72468 l -0.87359,1.80078 1.43027,1.40655 c 0.78664,0.7736 1.64639,1.76373 1.91054,2.20029 1.18732,1.96226 0.872,4.90684 -0.77116,7.20148 -0.58432,0.81599 -1.0624,1.64412 -1.0624,1.84028 0,0.19616 0.53578,1.3725 1.19063,2.6141 1.04267,1.97694 1.1903,2.46152 1.18804,3.89976 -0.005,3.15093 -2.09997,5.96088 -5.16239,6.92413 -2.00883,0.63186 -3.45238,0.37693 -6.15126,-1.0863 -2.45343,-1.33015 -1.92621,-1.37253 -5.13658,0.41287 -1.62542,0.90395 -3.53579,1.26077 -5.13943,0.95992 -0.7627,-0.14308 -1.48973,-0.6617 -3.03316,-2.16369 l -2.03001,-1.97549 -1.37239,0.80918 c -1.96963,1.16134 -3.2908,1.39212 -6.04241,1.05547 -1.2705,-0.15544 -3.02437,-0.343 -3.8975,-0.4168 l -1.5875,-0.13418 -1.81596,1.46872 c -2.05634,1.66313 -2.98993,2.0026 -5.5132,2.0047 -3.52488,0.003 -5.95607,-0.88199 -8.3593,-3.0427 l -1.37709,-1.23813 -2.844296,2.13125 c -2.95285,2.21259 -6.55305,4.16325 -9.06202,4.91 -0.80036,0.23821 -2.54331,0.5059 -3.8732,0.59485 l -2.418,0.16174 -0.22784,-1.9562 -0.22783,-1.95621 -5.02709,-0.19107 c -6.59174,-0.25055 -7.98285,-0.49043 -12.12266,-2.0904 -4.26575,-1.64864 -5.05395,-1.80719 -5.43592,-1.09348 -0.15378,0.28734 -0.21126,0.94356 -0.12773,1.45827 0.12998,0.80095 0.0679,0.96247 -0.43048,1.12066 -1.3219,0.41955 -3.71933,-0.50097 -5.27365,-2.0249 -1.30368,-1.27817 -1.90331,-2.81355 -1.92268,-4.923 -0.0216,-2.35735 0.44923,-3.81313 1.68889,-5.22146 1.40224,-1.59302 3.35153,-2.48511 6.43166,-2.94345 1.87232,-0.27861 3.21598,-0.68264 5.12785,-1.5419 4.10717,-1.84591 6.81973,-2.08118 9.28668,-0.80547 1.2202,0.63099 1.9826,0.48494 3.26575,-0.62562 1.78675,-1.54642 3.47554,-2.27469 5.22825,-2.25461 1.24702,0.0143 1.84213,0.21295 3.74489,1.25014 1.24425,0.67825 2.55267,1.23317 2.9076,1.23317 0.35494,0 1.96986,-0.82978 3.58873,-1.84395 6.56643,-4.11368 10.735576,-5.62619 17.893186,-6.49143 1.88281,-0.22761 3.56303,-0.52979 3.73381,-0.67153 0.22605,-0.18761 0.24165,-0.63503 0.0574,-1.64467 -0.13924,-0.76283 -0.20906,-2.17578 -0.15515,-3.13989 0.12308,-2.2014 0.76863,-3.11487 3.14238,-4.44661 1.36392,-0.7652 1.92567,-1.29153 2.81096,-2.63376 2.43852,-3.6971 3.72442,-4.27044 7.55571,-3.36883 1.11149,0.26156 1.58216,0.27818 1.75642,0.062 0.13094,-0.16242 0.43223,-1.72405 0.66953,-3.4703 0.91077,-6.70199 2.18795,-10.01056 7.44337,-19.28224 l 1.64206,-2.89694 -1.2605,-1.93089 c -2.43063,-3.72335 -2.31792,-5.92305 0.47132,-9.1982 l 1.54663,-1.81608 -0.74203,-2.24979 c -0.79033,-2.39622 -0.97755,-4.95833 -0.46264,-6.33102 0.15366,-0.40966 0.89495,-1.68569 1.64729,-2.83562 l 1.36791,-2.0908 0.14532,-2.83625 c 0.13142,-2.56506 0.21759,-2.94055 0.90121,-3.92701 1.06168,-1.532 2.90657,-3.16906 4.23227,-3.75548 1.30628,-0.57783 3.64432,-0.84382 4.78806,-0.54472 z m -3.83549,2.01539 c -3.18255,1.61272 -4.14808,3.15133 -4.50144,7.17323 -0.2351,2.67599 -0.29007,2.85267 -1.41613,4.55252 -2.6057,3.93342 -2.64046,5.7805 -0.18392,9.77288 1.1355,1.84543 1.06972,2.23401 -0.50287,2.97058 -2.23904,1.04871 -3.45078,2.81893 -3.45078,5.04122 0,1.38224 0.27954,1.89998 2.02027,3.74177 0.78062,0.82594 1.41931,1.61518 1.41931,1.75386 0,0.13868 -1.00679,1.92541 -2.23732,3.97052 -3.80805,6.32887 -5.37696,9.82359 -6.55412,14.59921 -0.45039,1.82721 -0.5685,3.23635 -0.6264,7.4736 -0.0392,2.87201 -0.14597,5.34255 -0.23717,5.49011 -0.31865,0.51559 -0.70696,0.25242 -2.86037,-1.93856 -1.19294,-1.21375 -2.40712,-2.26475 -2.69816,-2.33555 -1.68688,-0.41033 -3.98817,1.57866 -4.79763,4.14657 -0.51726,1.64093 -0.57616,1.68625 -3.0924,2.37882 -1.40416,0.38649 -1.58455,0.52196 -2.04471,1.53554 -0.63171,1.39148 -0.65313,3.01915 -0.0515,3.91597 0.25371,0.3782 1.11612,1.218 1.91649,1.86622 0.80036,0.64822 1.49237,1.43332 1.53778,1.74468 0.10671,0.73156 -0.2936,0.7914 -6.56486,0.98145 -8.45842,0.25632 -11.16019,1.1255 -20.096326,6.46521 -4.6144,2.75729 -4.72211,2.77891 -6.33355,1.2716 -1.6228,-1.51794 -2.66936,-2.05049 -4.08543,-2.07892 -1.89809,-0.0381 -3.5425,1.15815 -5.25013,3.81926 l -0.81339,1.26755 -0.69444,-0.45634 c -2.30132,-1.51227 -3.23757,-1.97641 -4.53494,-2.24818 -2.10499,-0.44095 -3.57227,-0.12348 -5.93907,1.28504 -1.87973,1.11866 -2.25413,1.23999 -4.36623,1.41495 -2.44035,0.20214 -4.20558,0.81528 -5.75952,2.00053 -2.41468,1.84177 -3.05127,4.91782 -1.52593,7.37344 1.5615,2.51383 2.81003,2.81476 3.86804,0.93229 0.68945,-1.2267 1.70723,-1.71766 3.0418,-1.46729 0.53105,0.0996 2.52733,0.7621 4.43618,1.47216 6.04583,2.24894 7.94502,2.50258 15.04617,2.00944 l 3.37344,-0.23427 0.004,1.68948 c 0.005,2.40579 0.17602,2.8801 1.03756,2.8801 1.77105,0 7.11312,-2.16923 10.09927,-4.10096 0.99362,-0.64277 2.71564,-2.08364 3.8267,-3.20195 l 2.020116,-2.03327 2.15584,2.27908 c 1.41666,1.49764 2.56794,2.45911 3.35772,2.80411 3.93266,1.71792 7.84028,0.63823 10.26014,-2.83492 l 1.15934,-1.66396 0.96537,0.5882 c 3.00534,1.83117 5.44306,2.41103 7.60321,1.80857 1.81433,-0.50602 3.62593,-2.39732 5.12634,-5.35189 1.20872,-2.38015 1.71143,-2.82123 2.64561,-2.32127 0.70877,0.37932 0.68505,0.65935 -0.25459,3.00599 -0.43656,1.09027 -0.7933,2.37918 -0.79276,2.86426 0.002,1.97075 2.09101,3.97348 4.17705,4.00495 1.76064,0.0266 3.31476,-0.895 4.92908,-2.92284 l 1.31073,-1.64649 1.77955,1.71801 c 2.84868,2.75017 4.98085,3.37516 7.36114,2.15774 1.82836,-0.93514 2.74268,-2.25325 2.88002,-4.15192 0.14878,-2.0569 -0.66084,-3.77715 -2.78176,-5.91055 -1.72599,-1.73616 -1.80028,-1.38633 0.65873,-3.10176 1.26369,-0.88156 2.04361,-1.99386 2.45672,-3.50375 0.52948,-1.93523 -0.66222,-3.99843 -2.88944,-5.00247 -1.46357,-0.65979 -2.55771,-0.47762 -4.61235,0.76793 -1.65404,1.0027 -2.14334,0.99536 -2.61473,-0.0392 -0.42823,-0.93988 0.0992,-1.43609 2.64281,-2.48627 4.04669,-1.67075 5.19708,-3.32098 5.18938,-7.44411 -0.005,-2.66488 -0.13881,-3.09416 -1.50997,-4.84322 l -0.78925,-1.00676 1.95792,-1.80409 c 1.11575,-1.0281 2.29339,-2.41595 2.73785,-3.22658 1.04101,-1.89863 1.10629,-4.73793 0.15132,-6.58185 -0.91778,-1.77212 -1.99301,-3.0296 -3.53324,-4.13213 -0.75822,-0.54274 -1.48849,-1.082 -1.62281,-1.19833 -0.1381,-0.11961 0.7862,-1.27812 2.12706,-2.66605 2.53544,-2.62444 3.58312,-4.01209 4.70234,-6.22825 0.99333,-1.96688 2.27836,-5.92328 2.27836,-7.01467 0,-1.39026 -0.42289,-1.5962 -2.49413,-1.21455 -1.24555,0.2295 -1.83321,0.24081 -2.03485,0.0392 -0.20164,-0.20164 -0.12348,-1.12005 0.27065,-3.18009 1.02945,-5.38078 0.7396,-8.1075 -1.58772,-14.93588 -2.11305,-6.19975 -2.10849,-7.32859 0.0341,-8.42164 1.17489,-0.59938 1.28845,-1.0556 0.56006,-2.25002 -0.56854,-0.93229 -3.27789,-2.49067 -4.34801,-2.50092 -0.40502,-0.004 -1.32336,0.29039 -2.04075,0.65392 z m 3.34539,1.70449 c 0.95082,0.40709 0.92619,0.69052 -0.20753,2.38827 -0.99721,1.49334 -1.07813,1.74112 -0.93792,2.87208 0.0844,0.68075 0.88534,3.19686 1.77988,5.59135 1.37902,3.69131 1.66464,4.75795 1.87753,7.01146 0.36407,3.854 -0.0389,7.20675 -1.33704,11.12451 -0.57862,1.74625 -0.94369,3.21334 -0.81125,3.2602 0.13243,0.0469 1.12802,-0.22102 2.21242,-0.59531 2.37402,-0.8194 2.96617,-0.84605 3.33856,-0.15024 0.39111,0.7308 -0.0479,2.2591 -1.40567,4.89368 -1.47207,2.85632 -5.06326,6.48554 -9.04243,9.13821 l -2.90688,1.93784 3.21511,0.46282 c 3.43819,0.49492 4.30598,0.8143 5.42732,1.9974 3.20251,3.37891 1.87597,9.79393 -2.13654,10.33213 -1.07388,0.14403 -2.2347,-0.30638 -2.97232,-1.1533 -0.9489,-1.08949 -0.81222,-2.74483 0.32707,-3.96125 0.68565,-0.73207 1.00643,-1.94357 0.69815,-2.63669 -0.36121,-0.81211 -1.58674,-1.43279 -2.82905,-1.43279 -1.4538,0 -1.58573,0.47345 -0.551,1.97738 0.94857,1.3787 1.08115,2.44672 0.42755,3.44424 -0.72396,1.1049 -1.50146,1.32591 -2.94004,0.83574 -1.6428,-0.55976 -2.74067,-0.1443 -3.424,1.29572 -0.45931,0.96791 -0.45913,1.0161 0.005,1.35546 0.26653,0.19489 1.15097,0.35188 1.98246,0.35188 1.12178,0 1.6788,0.13966 2.20368,0.55253 1.54138,1.21245 1.94197,3.24849 0.85331,4.33714 -0.66914,0.66914 -1.47012,0.65991 -2.03727,-0.0235 -0.33989,-0.40954 -1.24345,-0.47939 -1.78227,-0.13778 -0.19294,0.12232 -0.4154,0.70407 -0.49436,1.29278 -0.30617,2.28268 1.78341,5.12763 4.32536,5.88896 1.37126,0.4107 2.89925,0.15344 3.27661,-0.55166 0.29515,-0.55149 0.0988,-0.79968 -2.13139,-2.69435 -0.78892,-0.67023 -0.84669,-0.82513 -0.72163,-1.93471 0.16294,-1.44561 0.94773,-2.38264 2.34654,-2.80173 0.86849,-0.2602 1.14597,-0.21896 2.25488,0.33518 2.3445,1.17159 3.15725,4.19791 1.83052,6.81608 -1.30028,2.56599 -3.6979,3.90758 -6.57119,3.67694 -4.16821,-0.33458 -7.92066,-3.93216 -9.92525,-9.51561 -0.66128,-1.84186 -0.69403,-2.18253 -0.69458,-7.22468 -5.3e-4,-5.02559 0.036,-5.41033 0.72722,-7.65167 0.91225,-2.95808 3.04366,-7.4642 5.30902,-11.22405 2.61765,-4.34456 3.71185,-6.79595 3.72142,-8.33724 0.0104,-1.66835 -0.43914,-2.01096 -1.79452,-1.3678 -0.5342,0.2535 -1.13763,0.39707 -1.34095,0.31906 -0.20331,-0.078 -0.58216,-0.69829 -0.84188,-1.37837 -0.45733,-1.19748 -0.45631,-1.26607 0.0322,-2.17324 1.21778,-2.26129 4.07289,-2.99973 6.11813,-1.58237 1.04917,0.72707 1.41227,1.22443 1.92213,2.63283 0.60332,1.66657 1.78492,-0.45712 1.51629,-2.72526 -0.21999,-1.85744 -1.08664,-3.3851 -2.17941,-3.84169 -0.50074,-0.20923 -0.91045,-0.54683 -0.91045,-0.75022 0,-0.35663 0.98201,-1.28605 2.01508,-1.90717 0.59762,-0.35931 0.44656,-0.56434 -0.64678,-0.87791 -0.65792,-0.18869 -1.08267,-0.10447 -2.14643,0.42563 -0.7294,0.36347 -1.52471,0.62183 -1.76734,0.57413 -0.71717,-0.141 -1.4716,-1.39394 -1.61721,-2.68581 -0.23287,-2.06599 0.0891,-2.94605 1.72353,-4.71146 l 1.50663,-1.62734 -0.0692,-3.08947 c -0.0682,-3.04497 -0.058,-3.10489 0.70555,-4.15896 0.42609,-0.58821 1.18737,-1.32451 1.69172,-1.63621 1.04752,-0.6474 2.96463,-0.94071 3.80288,-0.58182 z m -1.51167,55.58759 c -0.62477,0.33437 -0.67173,1.19562 -0.0776,1.4236 0.59312,0.2276 1.68251,-0.53281 1.68251,-1.17442 0,-0.58689 -0.75487,-0.70409 -1.6049,-0.24918 z m -23.06194,7.04695 c 0.75572,0.30406 1.19744,1.77428 1.15792,3.85399 -0.044,2.31333 0.2461,2.60772 1.24207,1.26059 0.47965,-0.64876 0.77761,-0.79375 1.63116,-0.79375 1.37924,0 1.70278,0.53005 2.24555,3.67882 0.53812,3.12179 1.30879,5.48906 2.36115,7.25267 1.07446,1.80065 1.64184,1.87613 2.71013,0.36055 0.93861,-1.33163 1.75759,-1.64369 3.25528,-1.24041 2.14376,0.57726 3.01225,2.69715 2.27846,5.56144 -0.22934,0.89517 -0.41697,1.73703 -0.41697,1.8708 0,0.89694 2.4432,-0.84896 4.04993,-2.89407 1.41796,-1.80483 2.49996,-2.29954 4.18709,-1.9144 1.31289,0.29972 1.46948,0.42638 1.81268,1.46627 0.60362,1.82899 -0.46756,3.72542 -2.67052,4.72794 -2.48901,1.1327 -5.43813,1.21253 -7.16451,0.19394 l -0.93437,-0.5513 -1.77762,1.21717 c -3.29457,2.25584 -5.13068,2.718 -7.02241,1.76756 -1.10241,-0.55387 -2.12194,-1.98548 -2.12194,-2.97959 0,-0.98408 0.83861,-1.96785 2.11171,-2.47725 0.58481,-0.23399 1.06329,-0.52211 1.06329,-0.64026 0,-0.11816 -0.38695,-0.58854 -0.85989,-1.0453 -1.16551,-1.12562 -4.00462,-2.41026 -6.05393,-2.73929 -3.37387,-0.54168 -4.35695,-0.78786 -5.20451,-1.30329 -1.62407,-0.98766 -1.47702,-2.33951 0.35109,-3.22768 0.65115,-0.31635 1.18391,-0.65663 1.18391,-0.75618 0,-0.32983 -1.07026,-0.46784 -2.49097,-0.32121 -1.48708,0.15348 -3.13781,-0.23427 -3.92518,-0.92201 -0.28587,-0.24971 -0.46302,-0.78187 -0.46302,-1.39097 0,-0.81534 0.1838,-1.15259 1.05909,-1.94337 0.58251,-0.52626 1.32665,-0.96649 1.65365,-0.97829 0.32701,-0.0118 1.0708,-0.0416 1.65289,-0.0661 l 1.05833,-0.0447 0.157,-1.82972 c 0.1395,-1.62573 0.25058,-1.91333 0.99636,-2.57969 0.80365,-0.71806 1.95732,-0.94698 2.8871,-0.57289 z m 9.81173,10.40882 c 1.53691,1.11333 1.87651,1.91686 1.19559,2.82888 -0.83964,1.12461 -1.31203,1.3186 -1.90474,0.7822 -0.94818,-0.85809 -1.4607,-4.07431 -0.68951,-4.32689 0.15548,-0.0509 0.78488,0.27119 1.39866,0.71581 z m -19.05493,5.85029 c 3.75999,0.6252 7.70669,2.5867 9.82195,4.88148 1.25991,1.36684 2.56268,3.93525 2.80051,5.52122 0.20341,1.35644 -0.65098,3.7727 -1.79459,5.07519 -1.04041,1.18496 -2.69524,2.14441 -4.08064,2.3659 -1.39166,0.22249 -3.15428,-0.59602 -4.50637,-2.09263 -0.97529,-1.07953 -0.99436,-1.21586 -0.55755,-3.98652 0.063,-0.39932 -0.25516,-0.63766 -1.5039,-1.12674 -2.3674,-0.92721 -2.90755,-1.58746 -2.94413,-3.59876 -0.0419,-2.30162 -0.0437,-2.30867 -0.61115,-2.30867 -0.61006,0 -2.12454,1.44697 -2.16748,2.07087 -0.0571,0.82933 0.0853,1.50003 0.48074,2.26528 0.53869,1.04233 0.1318,1.86803 -1.1249,2.28278 -1.26517,0.41754 -2.76946,0.20378 -3.76963,-0.53567 -0.43841,-0.32413 -0.92749,-0.50875 -1.08684,-0.41027 -0.44293,0.27375 -0.35378,2.84908 0.12214,3.52855 0.64853,0.92592 2.47759,0.82257 3.64929,-0.20619 1.71061,-1.50194 3.47308,-1.29803 4.39468,0.50845 0.67469,1.3225 0.67705,1.89027 0.0133,3.19141 -0.86315,1.69191 -3.24406,3.18002 -5.08717,3.17958 -1.12139,-2.6e-4 -3.84049,-1.30448 -4.75696,-2.28166 -0.39247,-0.41846 -0.89123,-1.18614 -1.10837,-1.70595 -0.35359,-0.84649 -0.8318,-3.81636 -1.0194,-6.33093 -0.0682,-0.91446 -0.0917,-0.89236 -1.87425,1.76823 -3.503916,5.22972 -6.363896,8.0119 -10.117066,9.84187 -4.65687,2.2706 -5.90489,1.62779 -4.20289,-2.16477 0.70073,-1.56143 0.70729,-2.30158 0.0204,-2.30158 -0.20824,0 -1.47949,0.42515 -2.82499,0.94479 -3.26881,1.26241 -6.09301,1.60263 -10.35989,1.24802 -2.97107,-0.24692 -3.59098,-0.39784 -7.12644,-1.73504 -6.21918,-2.35224 -7.69082,-2.48725 -9.23179,-0.84697 -0.7231,0.76971 -1.34205,0.83169 -1.90486,0.19076 -1.01799,-1.15929 -0.66861,-2.85126 0.9333,-4.51963 1.283,-1.33625 1.65036,-1.45291 5.10018,-1.61971 l 3.19535,-0.15449 1.63784,-1.36854 c 1.22392,-1.02268 1.93222,-1.41269 2.80264,-1.54322 2.13781,-0.32059 4.64693,0.40788 4.64693,1.34913 0,0.21977 -0.29765,0.98697 -0.66146,1.7049 -0.66957,1.32134 -0.79233,1.99692 -0.50086,2.75648 0.27976,0.72904 0.8252,0.4565 1.54521,-0.77211 0.82421,-1.40641 1.53421,-1.55026 2.11435,-0.42839 0.99807,1.93004 3.27704,2.93172 5.47206,2.40514 1.71731,-0.41198 1.70774,-0.99278 -0.0348,-2.11096 -2.41168,-1.54757 -3.07173,-3.17837 -2.09938,-5.18697 0.76107,-1.57217 1.87364,-2.28505 3.33498,-2.13687 0.60517,0.0614 1.47163,0.37597 1.92548,0.69914 l 0.82517,0.58757 -0.56215,0.90957 c -0.67661,1.09479 -0.54271,1.58271 0.49702,1.81107 1.18972,0.26131 3.31295,-0.61085 8.49672,-3.49022 7.611066,-4.22763 9.169736,-4.8621 14.445676,-5.88026 2.9508,-0.56944 6.78363,-0.66939 9.34402,-0.24366 z m 3.09652,6.04941 c -0.99498,0.37829 -1.09867,0.97371 -0.40991,2.35382 0.33542,0.67212 0.69442,1.40041 0.79778,1.61844 0.10336,0.21802 0.5918,0.51568 1.08543,0.66145 1.28524,0.37957 1.6252,0.64822 2.50914,1.98292 1.00721,1.52081 1.48004,1.60389 2.22922,0.39169 0.78807,-1.27513 0.60059,-3.19584 -0.44767,-4.58634 -0.92352,-1.22504 -1.29766,-1.53623 -2.59944,-2.16212 -1.18265,-0.56862 -2.14467,-0.64761 -3.16455,-0.25986 z m -9.88004,9.33368 c -0.36931,0.44499 -0.50939,1.61674 -0.21313,1.7828 0.12982,0.0728 0.47354,-0.18584 0.76384,-0.57466 0.74052,-0.99184 0.21911,-2.13571 -0.55071,-1.20814 z m 19.41769,-14.10993 c 1.14556,0.27749 1.43211,0.4994 1.43211,1.10907 0,1.84538 -1.56282,2.09166 -3.25139,0.51236 -0.72961,-0.6824 -1.0229,-1.12943 -0.84965,-1.29504 0.4008,-0.38312 1.75237,-0.54841 2.66893,-0.32639 z m 15.08011,8.19461 c 2.21661,0.79741 6.16534,2.94578 6.72716,3.66002 1.28239,1.63029 1.19894,4.37933 -0.15996,5.26971 -1.11373,0.72974 -2.97,0.74792 -4.33428,0.0425 -1.00209,-0.51818 -1.35696,-0.93843 -2.30227,-2.72641 -1.43398,-2.71227 -2.38492,-5.60617 -2.02808,-6.17187 0.37985,-0.60219 0.60671,-0.61018 2.09743,-0.0739 z m -3.8269,1.01739 c 0.47645,1.22497 0.14168,4.25391 -0.63979,5.7886 -0.76569,1.50372 -2.01694,2.88261 -2.85801,3.14956 -1.39595,0.44306 -3.47088,-0.70568 -3.73082,-2.06549 -0.23404,-1.2243 0.31583,-2.23117 2.23322,-4.08927 3.90217,-3.7815 4.48161,-4.10436 4.9954,-2.7834 z"
       id="path579"
       inkscape:export-filename="footerDecoration.svg"
       inkscape:export-xdpi="96"
       inkscape:export-ydpi="96" /></g></svg>
