<?xml version="1.0" encoding="UTF-8" standalone="no"?>
<!-- Created with Inkscape (http://www.inkscape.org/) -->

<svg
   width="110.03344mm"
   height="110.27848mm"
   viewBox="0 0 110.03344 110.27848"
   version="1.1"
   id="svg446"
   xml:space="preserve"
   xmlns:inkscape="http://www.inkscape.org/namespaces/inkscape"
   xmlns:sodipodi="http://sodipodi.sourceforge.net/DTD/sodipodi-0.dtd"
   xmlns="http://www.w3.org/2000/svg"
   xmlns:svg="http://www.w3.org/2000/svg"><sodipodi:namedview
     id="namedview448"
     pagecolor="#ffffff"
     bordercolor="#000000"
     borderopacity="0.25"
     inkscape:showpageshadow="2"
     inkscape:pageopacity="0.0"
     inkscape:pagecheckerboard="0"
     inkscape:deskcolor="#d1d1d1"
     inkscape:document-units="mm"
     showgrid="false" /><defs
     id="defs443" /><g
     inkscape:label="Layer 1"
     inkscape:groupmode="layer"
     id="layer1"
     transform="translate(-52.268533,-127.38359)"><path
       style="fill:#000000;stroke-width:0.264583"
       d="m 162.1781,227.83911 c -0.68588,2.62283 -2.84145,4.53837 -5.82778,5.17882 -1.82022,0.39037 -2.22014,0.12215 -2.24996,-1.50901 l -0.0236,-1.28856 -1.19062,0.0383 c -0.74764,0.024 -2.66725,0.61243 -5.15938,1.58148 l -3.96875,1.54324 -5.87347,0.0902 -5.87348,0.0902 -0.15743,1.23871 c -0.0866,0.68129 -0.21295,1.60341 -0.2808,2.04915 l -0.12336,0.81044 -1.65094,-0.0882 c -2.42059,-0.12928 -4.21155,-0.54578 -6.75372,-1.57064 -2.83154,-1.14153 -5.25109,-2.48738 -7.31788,-4.07052 -2.96894,-2.27418 -3.18432,-2.29761 -5.20647,-0.56652 -2.39302,2.04858 -3.81039,2.55839 -7.1114,2.55789 -3.23169,-5e-4 -3.561719,-0.13156 -6.329199,-2.51346 l -1.82577,-1.57139 -1.9221,0.67154 c -3.57726,1.24982 -5.27277,1.14736 -8.72468,-0.52722 l -1.80078,-0.87359 -1.40655,1.43027 c -0.7736,0.78664 -1.76373,1.64639 -2.20029,1.91054 -1.96226,1.18732 -4.90684,0.872 -7.20148,-0.77116 -0.81599,-0.58432 -1.64412,-1.0624 -1.84028,-1.0624 -0.19616,0 -1.3725,0.53578 -2.6141,1.19063 -1.97694,1.04267 -2.46152,1.1903 -3.89976,1.18804 -3.15093,-0.005 -5.96088,-2.09997 -6.92413,-5.16239 -0.63186,-2.00883 -0.37693,-3.45238 1.0863,-6.15126 1.33015,-2.45343 1.37253,-1.92621 -0.41287,-5.13658 -0.90395,-1.62542 -1.26077,-3.53579 -0.95992,-5.13943 0.14308,-0.7627 0.6617,-1.48973 2.16369,-3.03316 l 1.97549,-2.03001 -0.80918,-1.37239 c -1.16134,-1.96963 -1.39212,-3.2908 -1.05547,-6.04241 0.15544,-1.2705 0.343,-3.02437 0.4168,-3.8975 l 0.13418,-1.5875 -1.46872,-1.81596 c -1.66313,-2.05634 -2.0026,-2.98993 -2.0047,-5.5132 -0.003,-3.52488 0.88199,-5.95607 3.0427,-8.3593 l 1.23813,-1.37709 -2.13125,-2.8443 c -2.21259,-2.95285 -4.16325,-6.55305 -4.91,-9.06202 -0.23821,-0.80036 -0.5059,-2.54331 -0.59485,-3.8732 l -0.16174,-2.418 1.9562,-0.22784 1.95621,-0.22783 0.19107,-5.02709 c 0.25055,-6.59174 0.49043,-7.98285 2.0904,-12.12266 1.64864,-4.26575 1.80719,-5.05395 1.09348,-5.43592 -0.28734,-0.15378 -0.94356,-0.21126 -1.45827,-0.12773 -0.80095,0.12998 -0.96247,0.0679 -1.12066,-0.43048 -0.41955,-1.3219 0.50097,-3.71933 2.0249,-5.27365 1.27817,-1.30368 2.81355,-1.90331 4.923,-1.92268 2.35735,-0.0216 3.81313,0.44923 5.22146,1.68889 1.59302,1.40224 2.48511,3.35153 2.94345,6.43166 0.27861,1.87232 0.68264,3.21598 1.5419,5.12785 1.84591,4.10717 2.08118,6.81973 0.80547,9.28668 -0.63099,1.2202 -0.48494,1.9826 0.62562,3.26575 1.54642,1.78675 2.27469,3.47554 2.25461,5.22825 -0.0143,1.24702 -0.21295,1.84213 -1.25014,3.74489 -0.67825,1.24425 -1.23317,2.55267 -1.23317,2.9076 0,0.35494 0.82978,1.96986 1.84395,3.58873 4.11368,6.56643 5.62619,10.73558 6.49143,17.89319 0.22761,1.88281 0.52979,3.56303 0.67153,3.73381 0.18761,0.22605 0.63503,0.24165 1.64467,0.0574 0.76283,-0.13924 2.17578,-0.20906 3.13989,-0.15515 2.2014,0.12308 3.11487,0.76863 4.44661,3.14238 0.7652,1.36392 1.29153,1.92567 2.63376,2.81096 3.6971,2.43852 4.27044,3.72442 3.36883,7.55571 -0.26156,1.11149 -0.27818,1.58216 -0.062,1.75642 0.16242,0.13094 1.724049,0.43223 3.470299,0.66953 6.70199,0.91077 10.01056,2.18795 19.28224,7.44337 l 2.89694,1.64206 1.93089,-1.2605 c 3.72335,-2.43063 5.92305,-2.31792 9.1982,0.47132 l 1.81608,1.54663 2.24979,-0.74203 c 2.39622,-0.79033 4.95833,-0.97755 6.33102,-0.46264 0.40966,0.15366 1.68569,0.89495 2.83562,1.64729 l 2.0908,1.36791 2.83625,0.14532 c 2.56506,0.13142 2.94055,0.21759 3.92701,0.90121 1.532,1.06168 3.16906,2.90657 3.75548,4.23227 0.57783,1.30628 0.84382,3.64432 0.54472,4.78806 z m -2.01539,-3.83549 c -1.61272,-3.18255 -3.15133,-4.14808 -7.17323,-4.50144 -2.67599,-0.2351 -2.85267,-0.29007 -4.55252,-1.41613 -3.93342,-2.6057 -5.7805,-2.64046 -9.77288,-0.18392 -1.84543,1.1355 -2.23401,1.06972 -2.97058,-0.50287 -1.04871,-2.23904 -2.81893,-3.45078 -5.04122,-3.45078 -1.38224,0 -1.89998,0.27954 -3.74177,2.02027 -0.82594,0.78062 -1.61518,1.41931 -1.75386,1.41931 -0.13868,0 -1.92541,-1.00679 -3.97052,-2.23732 -6.32887,-3.80805 -9.82359,-5.37696 -14.59921,-6.55412 -1.82721,-0.45039 -3.23635,-0.5685 -7.473599,-0.6264 -2.87201,-0.0392 -5.34255,-0.14597 -5.49011,-0.23717 -0.51559,-0.31865 -0.25242,-0.70696 1.93856,-2.86037 1.21375,-1.19294 2.26475,-2.40712 2.33555,-2.69816 0.41033,-1.68688 -1.57866,-3.98817 -4.14657,-4.79763 -1.64093,-0.51726 -1.68625,-0.57616 -2.37882,-3.0924 -0.38649,-1.40416 -0.52196,-1.58455 -1.53554,-2.04471 -1.39148,-0.63171 -3.01915,-0.65313 -3.91597,-0.0515 -0.3782,0.25371 -1.218,1.11612 -1.86622,1.91649 -0.64822,0.80036 -1.43332,1.49237 -1.74468,1.53778 -0.73156,0.10671 -0.7914,-0.2936 -0.98145,-6.56486 -0.25632,-8.45842 -1.1255,-11.16019 -6.46521,-20.09633 -2.75729,-4.6144 -2.77891,-4.72211 -1.2716,-6.33355 1.51794,-1.6228 2.05049,-2.66936 2.07892,-4.08543 0.0381,-1.89809 -1.15815,-3.5425 -3.81926,-5.25013 l -1.26755,-0.81339 0.45634,-0.69444 c 1.51227,-2.30132 1.97641,-3.23757 2.24818,-4.53494 0.44095,-2.10499 0.12348,-3.57227 -1.28504,-5.93907 -1.11866,-1.87973 -1.23999,-2.25413 -1.41495,-4.36623 -0.20214,-2.44035 -0.81528,-4.20558 -2.00053,-5.75952 -1.84177,-2.41468 -4.91782,-3.05127 -7.37344,-1.52593 -2.51383,1.5615 -2.81476,2.81003 -0.93229,3.86804 1.2267,0.68945 1.71766,1.70723 1.46729,3.0418 -0.0996,0.53105 -0.7621,2.52733 -1.47216,4.43618 -2.24894,6.04583 -2.50258,7.94502 -2.00944,15.04617 l 0.23427,3.37344 -1.68948,0.004 c -2.40579,0.005 -2.8801,0.17602 -2.8801,1.03756 0,1.77105 2.16923,7.11312 4.10096,10.09927 0.64277,0.99362 2.08364,2.71564 3.20195,3.8267 l 2.03327,2.02012 -2.27908,2.15584 c -1.49764,1.41666 -2.45911,2.56794 -2.80411,3.35772 -1.71792,3.93266 -0.63823,7.84028 2.83492,10.26014 l 1.66396,1.15934 -0.5882,0.96537 c -1.83117,3.00534 -2.41103,5.44306 -1.80857,7.60321 0.50602,1.81433 2.39732,3.62593 5.35189,5.12634 2.38015,1.20872 2.82123,1.71143 2.32127,2.64561 -0.37932,0.70877 -0.65935,0.68505 -3.00599,-0.25459 -1.09027,-0.43656 -2.37918,-0.7933 -2.86426,-0.79276 -1.97075,0.002 -3.97348,2.09101 -4.00495,4.17705 -0.0266,1.76064 0.895,3.31476 2.92284,4.92908 l 1.64649,1.31073 -1.71801,1.77955 c -2.75017,2.84868 -3.37516,4.98085 -2.15774,7.36114 0.93514,1.82836 2.25325,2.74268 4.15192,2.88002 2.0569,0.14878 3.77715,-0.66084 5.91055,-2.78176 1.73616,-1.72599 1.38633,-1.80028 3.10176,0.65873 0.88156,1.26369 1.99386,2.04361 3.50375,2.45672 1.93523,0.52948 3.99843,-0.66222 5.00247,-2.88944 0.65979,-1.46357 0.47762,-2.55771 -0.76793,-4.61235 -1.0027,-1.65404 -0.99536,-2.14334 0.0392,-2.61473 0.93988,-0.42823 1.43609,0.0992 2.48627,2.64281 1.67075,4.04669 3.32098,5.19708 7.44411,5.18938 2.66488,-0.005 3.09416,-0.13881 4.84322,-1.50997 l 1.00676,-0.78925 1.80409,1.95792 c 1.0281,1.11575 2.41595,2.29339 3.226579,2.73785 1.89863,1.04101 4.73793,1.10629 6.58185,0.15132 1.77212,-0.91778 3.0296,-1.99301 4.13213,-3.53324 0.54274,-0.75822 1.082,-1.48849 1.19833,-1.62281 0.11961,-0.1381 1.27812,0.7862 2.66605,2.12706 2.62444,2.53544 4.01209,3.58312 6.22825,4.70234 1.96688,0.99333 5.92328,2.27836 7.01467,2.27836 1.39026,0 1.5962,-0.42289 1.21455,-2.49413 -0.2295,-1.24555 -0.24081,-1.83321 -0.0392,-2.03485 0.20164,-0.20164 1.12005,-0.12348 3.18009,0.27065 5.38078,1.02945 8.1075,0.7396 14.93588,-1.58772 6.19975,-2.11305 7.32859,-2.10849 8.42164,0.0341 0.59938,1.17489 1.0556,1.28845 2.25002,0.56006 0.93229,-0.56854 2.49067,-3.27789 2.50092,-4.34801 0.004,-0.40502 -0.29039,-1.32336 -0.65392,-2.04075 z m -1.70449,3.34539 c -0.40709,0.95082 -0.69052,0.92619 -2.38827,-0.20753 -1.49334,-0.99721 -1.74112,-1.07813 -2.87208,-0.93792 -0.68075,0.0844 -3.19686,0.88534 -5.59135,1.77988 -3.69131,1.37902 -4.75795,1.66464 -7.01146,1.87753 -3.854,0.36407 -7.20675,-0.0389 -11.12451,-1.33704 -1.74625,-0.57862 -3.21334,-0.94369 -3.2602,-0.81125 -0.0469,0.13243 0.22102,1.12802 0.59531,2.21242 0.8194,2.37402 0.84605,2.96617 0.15024,3.33856 -0.7308,0.39111 -2.2591,-0.0479 -4.89368,-1.40567 -2.85632,-1.47207 -6.48554,-5.06326 -9.13821,-9.04243 l -1.93784,-2.90688 -0.46282,3.21511 c -0.49492,3.43819 -0.8143,4.30598 -1.9974,5.42732 -3.37891,3.20251 -9.793929,1.87597 -10.332129,-2.13654 -0.14403,-1.07388 0.30638,-2.2347 1.1533,-2.97232 1.089489,-0.9489 2.744829,-0.81222 3.961249,0.32707 0.73207,0.68565 1.94357,1.00643 2.63669,0.69815 0.81211,-0.36121 1.43279,-1.58674 1.43279,-2.82905 0,-1.4538 -0.47345,-1.58573 -1.97738,-0.551 -1.3787,0.94857 -2.44672,1.08115 -3.44424,0.42755 -1.1049,-0.72396 -1.32591,-1.50146 -0.83574,-2.94004 0.55976,-1.6428 0.1443,-2.74067 -1.295719,-3.424 -0.96791,-0.45931 -1.0161,-0.45913 -1.35546,0.005 -0.19489,0.26653 -0.35188,1.15097 -0.35188,1.98246 0,1.12178 -0.13966,1.6788 -0.55253,2.20368 -1.21245,1.54138 -3.24849,1.94197 -4.33714,0.85331 -0.66914,-0.66914 -0.65991,-1.47012 0.0235,-2.03727 0.40954,-0.33989 0.47939,-1.24345 0.13778,-1.78227 -0.12232,-0.19294 -0.70407,-0.4154 -1.29278,-0.49436 -2.28268,-0.30617 -5.12763,1.78341 -5.88896,4.32536 -0.4107,1.37126 -0.15344,2.89925 0.55166,3.27661 0.55149,0.29515 0.79968,0.0988 2.69435,-2.13139 0.67023,-0.78892 0.82513,-0.84669 1.93471,-0.72163 1.44561,0.16294 2.38264,0.94773 2.80173,2.34654 0.2602,0.86849 0.21896,1.14597 -0.33518,2.25488 -1.17159,2.3445 -4.19791,3.15725 -6.81608,1.83052 -2.56599,-1.30028 -3.90758,-3.6979 -3.67694,-6.57119 0.33458,-4.16821 3.93216,-7.92066 9.51561,-9.92525 1.84186,-0.66128 2.18253,-0.69403 7.224679,-0.69458 5.02559,-5.3e-4 5.41033,0.036 7.65167,0.72722 2.95808,0.91225 7.4642,3.04366 11.22405,5.30902 4.34456,2.61765 6.79595,3.71185 8.33724,3.72142 1.66835,0.0104 2.01096,-0.43914 1.3678,-1.79452 -0.2535,-0.5342 -0.39707,-1.13763 -0.31906,-1.34095 0.078,-0.20331 0.69829,-0.58216 1.37837,-0.84188 1.19748,-0.45733 1.26607,-0.45631 2.17324,0.0322 2.26129,1.21778 2.99973,4.07289 1.58237,6.11813 -0.72707,1.04917 -1.22443,1.41227 -2.63283,1.92213 -1.66657,0.60332 0.45712,1.78492 2.72526,1.51629 1.85744,-0.21999 3.3851,-1.08664 3.84169,-2.17941 0.20923,-0.50074 0.54683,-0.91045 0.75022,-0.91045 0.35663,0 1.28605,0.98201 1.90717,2.01508 0.35931,0.59762 0.56434,0.44656 0.87791,-0.64678 0.18869,-0.65792 0.10447,-1.08267 -0.42563,-2.14643 -0.36347,-0.7294 -0.62183,-1.52471 -0.57413,-1.76734 0.141,-0.71717 1.39394,-1.4716 2.68581,-1.61721 2.06599,-0.23287 2.94605,0.0891 4.71146,1.72353 l 1.62734,1.50663 3.08947,-0.0692 c 3.04497,-0.0682 3.10489,-0.058 4.15896,0.70555 0.58821,0.42609 1.32451,1.18737 1.63621,1.69172 0.6474,1.04752 0.94071,2.96463 0.58182,3.80288 z m -55.58759,-1.51167 c -0.33437,-0.62477 -1.19562,-0.67173 -1.4236,-0.0776 -0.2276,0.59312 0.53281,1.68251 1.17442,1.68251 0.58689,0 0.70409,-0.75487 0.24918,-1.6049 z M 95.823681,202.7754 c -0.30406,0.75572 -1.77428,1.19744 -3.85399,1.15792 -2.31333,-0.044 -2.60772,0.2461 -1.26059,1.24207 0.64876,0.47965 0.79375,0.77761 0.79375,1.63116 0,1.37924 -0.53005,1.70278 -3.67882,2.24555 -3.12179,0.53812 -5.48906,1.30879 -7.25267,2.36115 -1.80065,1.07446 -1.87613,1.64184 -0.36055,2.71013 1.33163,0.93861 1.64369,1.75759 1.24041,3.25528 -0.57726,2.14376 -2.69715,3.01225 -5.56144,2.27846 -0.89517,-0.22934 -1.73703,-0.41697 -1.8708,-0.41697 -0.89694,0 0.84896,2.4432 2.89407,4.04993 1.80483,1.41796 2.29954,2.49996 1.9144,4.18709 -0.29972,1.31289 -0.42638,1.46948 -1.46627,1.81268 -1.82899,0.60362 -3.72542,-0.46756 -4.72794,-2.67052 -1.1327,-2.48901 -1.21253,-5.43813 -0.19394,-7.16451 l 0.5513,-0.93437 -1.21717,-1.77762 c -2.25584,-3.29457 -2.718,-5.13068 -1.76756,-7.02241 0.55387,-1.10241 1.98548,-2.12194 2.97959,-2.12194 0.98408,0 1.96785,0.83861 2.47725,2.11171 0.23399,0.58481 0.52211,1.06329 0.64026,1.06329 0.11816,0 0.58854,-0.38695 1.0453,-0.85989 1.12562,-1.16551 2.41026,-4.00462 2.73929,-6.05393 0.54168,-3.37387 0.78786,-4.35695 1.30329,-5.20451 0.98766,-1.62407 2.33951,-1.47702 3.22768,0.35109 0.31635,0.65115 0.65663,1.18391 0.75618,1.18391 0.32983,0 0.46784,-1.07026 0.32121,-2.49097 -0.15348,-1.48708 0.23427,-3.13781 0.92201,-3.92518 0.24971,-0.28587 0.78187,-0.46302 1.39097,-0.46302 0.81534,0 1.15259,0.1838 1.94337,1.05909 0.52626,0.58251 0.96649,1.32665 0.97829,1.65365 0.0118,0.32701 0.0416,1.0708 0.0661,1.65289 l 0.0447,1.05833 1.82972,0.157 c 1.62573,0.1395 1.91333,0.25058 2.57969,0.99636 0.71806,0.80365 0.94698,1.95732 0.57289,2.8871 z m -10.40882,9.81173 c -1.11333,1.53691 -1.91686,1.87651 -2.82888,1.19559 -1.12461,-0.83964 -1.3186,-1.31203 -0.7822,-1.90474 0.85809,-0.94818 4.07431,-1.4607 4.32689,-0.68951 0.0509,0.15548 -0.27119,0.78488 -0.71581,1.39866 z m -5.85029,-19.05493 c -0.6252,3.75999 -2.5867,7.70669 -4.88148,9.82195 -1.36684,1.25991 -3.93525,2.56268 -5.52122,2.80051 -1.35644,0.20341 -3.7727,-0.65098 -5.07519,-1.79459 -1.18496,-1.04041 -2.14441,-2.69524 -2.3659,-4.08064 -0.22249,-1.39166 0.59602,-3.15428 2.09263,-4.50637 1.07953,-0.97529 1.21586,-0.99436 3.98652,-0.55755 0.39932,0.063 0.63766,-0.25516 1.12674,-1.5039 0.92721,-2.3674 1.58746,-2.90755 3.59876,-2.94413 2.30162,-0.0419 2.30867,-0.0437 2.30867,-0.61115 0,-0.61006 -1.44697,-2.12454 -2.07087,-2.16748 -0.82933,-0.0571 -1.50003,0.0853 -2.26528,0.48074 -1.04233,0.53869 -1.86803,0.1318 -2.28278,-1.1249 -0.41754,-1.26517 -0.20378,-2.76946 0.53567,-3.76963 0.32413,-0.43841 0.50875,-0.92749 0.41027,-1.08684 -0.27375,-0.44293 -2.84908,-0.35378 -3.52855,0.12214 -0.92592,0.64853 -0.82257,2.47759 0.20619,3.64929 1.50194,1.71061 1.29803,3.47308 -0.50845,4.39468 -1.3225,0.67469 -1.89027,0.67705 -3.19141,0.0133 -1.69191,-0.86315 -3.18002,-3.24406 -3.17958,-5.08717 2.6e-4,-1.12139 1.30448,-3.84049 2.28166,-4.75696 0.41846,-0.39247 1.18614,-0.89123 1.70595,-1.10837 0.84649,-0.35359 3.81636,-0.8318 6.33093,-1.0194 0.91446,-0.0682 0.89236,-0.0917 -1.76823,-1.87425 -5.22972,-3.50392 -8.0119,-6.3639 -9.84187,-10.11707 -2.2706,-4.65687 -1.62779,-5.90489 2.16477,-4.20289 1.56143,0.70073 2.30158,0.70729 2.30158,0.0204 0,-0.20824 -0.42515,-1.47949 -0.94479,-2.82499 -1.26241,-3.26881 -1.60263,-6.09301 -1.24802,-10.35989 0.24692,-2.97107 0.39784,-3.59098 1.73504,-7.12644 2.35224,-6.21918 2.48725,-7.69082 0.84697,-9.23179 -0.76971,-0.7231 -0.83169,-1.34205 -0.19076,-1.90486 1.15929,-1.01799 2.85126,-0.66861 4.51963,0.9333 1.33625,1.283 1.45291,1.65036 1.61971,5.10018 l 0.15449,3.19535 1.36854,1.63784 c 1.02268,1.22392 1.41269,1.93222 1.54322,2.80264 0.32059,2.13781 -0.40788,4.64693 -1.34913,4.64693 -0.21977,0 -0.98697,-0.29765 -1.7049,-0.66146 -1.32134,-0.66957 -1.99692,-0.79233 -2.75648,-0.50086 -0.72904,0.27976 -0.4565,0.8252 0.77211,1.54521 1.40641,0.82421 1.55026,1.53421 0.42839,2.11435 -1.93004,0.99807 -2.93172,3.27704 -2.40514,5.47206 0.41198,1.71731 0.99278,1.70774 2.11096,-0.0348 1.54757,-2.41168 3.17837,-3.07173 5.18697,-2.09938 1.57217,0.76107 2.28505,1.87364 2.13687,3.33498 -0.0614,0.60517 -0.37597,1.47163 -0.69914,1.92548 l -0.58757,0.82517 -0.90957,-0.56215 c -1.09479,-0.67661 -1.58271,-0.54271 -1.81107,0.49702 -0.26131,1.18972 0.61085,3.31295 3.49022,8.49672 4.22763,7.61107 4.8621,9.16974 5.88026,14.44568 0.56944,2.9508 0.66939,6.78363 0.24366,9.34402 z m -6.04941,3.09652 c -0.37829,-0.99498 -0.97371,-1.09867 -2.35382,-0.40991 -0.67212,0.33542 -1.40041,0.69442 -1.61844,0.79778 -0.21802,0.10336 -0.51568,0.5918 -0.66145,1.08543 -0.37957,1.28524 -0.64822,1.6252 -1.98292,2.50914 -1.52081,1.00721 -1.60389,1.48004 -0.39169,2.22922 1.27513,0.78807 3.19584,0.60059 4.58634,-0.44767 1.22504,-0.92352 1.53623,-1.29766 2.16212,-2.59944 0.56862,-1.18265 0.64761,-2.14467 0.25986,-3.16455 z m -9.33368,-9.88004 c -0.44499,-0.36931 -1.61674,-0.50939 -1.7828,-0.21313 -0.0728,0.12982 0.18584,0.47354 0.57466,0.76384 0.99184,0.74052 2.13571,0.21911 1.20814,-0.55071 z m 14.10993,19.41769 c -0.27749,1.14556 -0.4994,1.43211 -1.10907,1.43211 -1.84538,0 -2.09166,-1.56282 -0.51236,-3.25139 0.6824,-0.72961 1.12943,-1.0229 1.29504,-0.84965 0.38312,0.4008 0.54841,1.75237 0.32639,2.66893 z m -8.19461,15.08011 c -0.79741,2.21661 -2.94578,6.16534 -3.66002,6.72716 -1.63029,1.28239 -4.37933,1.19894 -5.26971,-0.15996 -0.72974,-1.11373 -0.74792,-2.97 -0.0425,-4.33428 0.51818,-1.00209 0.93843,-1.35696 2.72641,-2.30227 2.71227,-1.43398 5.60617,-2.38492 6.17187,-2.02808 0.60219,0.37985 0.61018,0.60671 0.0739,2.09743 z m -1.01739,-3.8269 c -1.22497,0.47645 -4.25391,0.14168 -5.7886,-0.63979 -1.50372,-0.76569 -2.88261,-2.01694 -3.14956,-2.85801 -0.44306,-1.39595 0.70568,-3.47088 2.06549,-3.73082 1.2243,-0.23404 2.23117,0.31583 4.08927,2.23322 3.7815,3.90217 4.10436,4.48161 2.7834,4.9954 z"
       id="path579"
       inkscape:export-filename="footerDecoration2.svg"
       inkscape:export-xdpi="96"
       inkscape:export-ydpi="96" /></g></svg>
